<svg width="241" height="224" viewBox="0 0 241 224" fill="none" xmlns="http://www.w3.org/2000/svg">
<path fill-rule="evenodd" clip-rule="evenodd" d="M151.819 125.94C155.701 125.025 159.505 123.756 163.211 122.092C176.22 116.258 181.247 102.123 179.21 88.7367C177.174 75.3554 168.111 62.9987 154.383 60.5332C146.534 59.1223 140.454 60.0491 135.825 62.3841C131.222 64.708 128 68.4937 126.018 73.0954C120.5 85.9237 124.726 105.273 131.244 113.071C134.261 116.676 137.605 120.11 141.219 123.374C124.831 124.721 107.375 119.959 90.5214 112.156C53.8923 95.1992 20.1329 63.7058 5.65728 45.6775C4.87961 44.7089 3.19962 44.4514 1.90244 45.098C0.605253 45.7446 0.182041 47.0538 0.959718 48.0225C15.7222 66.4075 50.1787 98.505 87.5337 115.797C106.829 124.73 126.913 129.675 145.544 127.107C174.161 150.67 217.191 165.638 253.502 178.542C254.844 179.023 256.498 178.548 257.187 177.485C257.87 176.424 257.341 175.175 255.993 174.695C221.167 162.317 179.913 148.137 151.819 125.94ZM147.665 122.513C152.091 121.684 156.432 120.359 160.635 118.47C171.894 113.422 175.538 101.014 173.774 89.4259C172.689 82.3237 169.521 75.4811 164.503 70.6836C161.35 67.6664 157.473 65.4678 152.892 64.647C146.883 63.567 142.208 64.0911 138.671 65.8803C135.107 67.6755 132.743 70.6785 131.214 74.2433C126.182 85.9343 129.96 103.568 135.893 110.665C139.392 114.852 143.343 118.79 147.665 122.513Z" fill="#20768C"/>
</svg>
