<svg width="0" height="0" class="hidden">
  <symbol xmlns="http://www.w3.org/2000/svg" viewBox="0 0 28 28" id="cart-icon">
    <path d="M8.75 26.25C9.7165 26.25 10.5 25.4665 10.5 24.5C10.5 23.5335 9.7165 22.75 8.75 22.75C7.7835 22.75 7 23.5335 7 24.5C7 25.4665 7.7835 26.25 8.75 26.25Z"></path>
    <path d="M21 26.25C21.9665 26.25 22.75 25.4665 22.75 24.5C22.75 23.5335 21.9665 22.75 21 22.75C20.0335 22.75 19.25 23.5335 19.25 24.5C19.25 25.4665 20.0335 26.25 21 26.25Z"></path>
    <path d="M24.5 6.12499H5.0925L4.375 2.44999C4.33409 2.24938 4.22413 2.06946 4.06425 1.94156C3.90437 1.81365 3.7047 1.74587 3.5 1.74999H0V3.49999H2.7825L6.125 20.3C6.16591 20.5006 6.27587 20.6805 6.43575 20.8084C6.59563 20.9363 6.7953 21.0041 7 21H22.75V19.25H7.7175L7 15.75H22.75C22.9523 15.7549 23.15 15.6896 23.3095 15.5652C23.4691 15.4408 23.5805 15.2649 23.625 15.0675L25.375 7.19249C25.4043 7.06267 25.4036 6.92786 25.373 6.79834C25.3424 6.66881 25.2826 6.54798 25.1982 6.44504C25.1138 6.34211 25.0071 6.25977 24.8861 6.20431C24.7651 6.14885 24.6331 6.12172 24.5 6.12499ZM22.05 14H6.6675L5.4425 7.87499H23.4062L22.05 14Z"></path>
  </symbol>
</svg>