<svg xmlns="http://www.w3.org/2000/svg" fill="none" viewBox="0 0 60 56">
  <g filter="url(#a)">
    <path stroke="#20768C" stroke-linecap="round" stroke-linejoin="round" stroke-width="1.75" d="M53.374 25.66c-.801-1.065-3.78-1.798-5.04-3.713-1.26-1.915-2.29-6.063-5.498-7.656C39.63 12.697 33.5 12.25 30 12.25s-9.625.438-12.836 2.038c-3.212 1.6-4.239 5.744-5.499 7.656-1.26 1.912-4.238 2.651-5.04 3.715-.801 1.065-1.366 7.792-1.022 11.091.343 3.299.984 5.25.984 5.25h9.406c1.54 0 2.041-.579 5.191-.875 3.457-.328 6.847-.438 8.816-.438 1.969 0 5.469.11 8.923.438 3.15.299 3.667.875 5.19.875h9.298s.64-1.951.984-5.25c.343-3.299-.223-10.026-1.02-11.09ZM45.75 42h6.125v1.75H45.75V42ZM8.125 42h6.125v1.75H8.125V42Z"/>
    <path fill="#20768C" d="M41.864 33.814c-.646-.747-2.753-1.37-5.542-1.788-2.79-.418-3.806-.526-6.3-.526-2.494 0-3.628.18-6.301.526-2.673.347-4.68.964-5.541 1.788-1.292 1.252.6 2.656 2.086 2.827 1.439.164 4.317.104 9.768.104 5.451 0 8.329.06 9.768-.104 1.483-.18 3.24-1.488 2.062-2.827Zm7.339-7.23a.353.353 0 0 0-.34-.328c-1.29-.046-2.602.045-4.929.731a10.267 10.267 0 0 0-3.29 1.647c-.249.195-.16.721.152.777 1.918.225 3.847.338 5.778.339 1.158 0 2.353-.328 2.575-1.36a5.732 5.732 0 0 0 .054-1.806Zm-38.406 0a.353.353 0 0 1 .34-.328c1.29-.046 2.602.045 4.929.731 1.187.347 2.301.905 3.29 1.647.249.195.16.721-.152.777a49.795 49.795 0 0 1-5.778.339c-1.158 0-2.353-.328-2.575-1.36a5.732 5.732 0 0 1-.054-1.806Z"/>
    <path stroke="#20768C" stroke-linecap="round" stroke-linejoin="round" stroke-width="1.75" d="M49.25 21H51M9 21h1.75m-.219 2.078s5.07-1.312 19.469-1.312c14.4 0 19.469 1.312 19.469 1.312"/>
  </g>
  <defs>
    <filter id="a" width="64" height="64" x="-2" y="0" color-interpolation-filters="sRGB" filterUnits="userSpaceOnUse">
      <feFlood flood-opacity="0" result="BackgroundImageFix"/>
      <feColorMatrix in="SourceAlpha" result="hardAlpha" values="0 0 0 0 0 0 0 0 0 0 0 0 0 0 0 0 0 0 127 0"/>
      <feOffset dy="4"/>
      <feGaussianBlur stdDeviation="2"/>
      <feComposite in2="hardAlpha" operator="out"/>
      <feColorMatrix values="0 0 0 0 0 0 0 0 0 0 0 0 0 0 0 0 0 0 0.25 0"/>
      <feBlend in2="BackgroundImageFix" result="effect1_dropShadow_13_106"/>
      <feBlend in="SourceGraphic" in2="effect1_dropShadow_13_106" result="shape"/>
    </filter>
  </defs>
</svg>