<svg xmlns="http://www.w3.org/2000/svg" fill="none" viewBox="0 0 18 18">
  <path fill="#18313f" d="M1 16a.965.965 0 0 1-.712-.288A.965.965 0 0 1 0 15c0-.283.096-.52.288-.712A.965.965 0 0 1 1 14h4c.283 0 .521.096.713.288A.967.967 0 0 1 6 15c0 .283-.096.52-.287.712A.968.968 0 0 1 5 16H1ZM1 4a.967.967 0 0 1-.712-.287A.968.968 0 0 1 0 3c0-.283.096-.521.288-.713A.967.967 0 0 1 1 2h8a.97.97 0 0 1 .713.287A.97.97 0 0 1 10 3a.97.97 0 0 1-.287.713A.97.97 0 0 1 9 4H1Zm8 14a.965.965 0 0 1-.712-.288A.965.965 0 0 1 8 17v-4c0-.283.096-.521.288-.713A.967.967 0 0 1 9 12a.97.97 0 0 1 .713.287A.97.97 0 0 1 10 13v1h7c.283 0 .52.096.712.288A.965.965 0 0 1 18 15c0 .283-.096.52-.288.712A.965.965 0 0 1 17 16h-7v1c0 .283-.096.52-.287.712A.968.968 0 0 1 9 18Zm-4-6a.968.968 0 0 1-.713-.288A.967.967 0 0 1 4 11v-1H1a.965.965 0 0 1-.712-.288A.965.965 0 0 1 0 9c0-.283.096-.521.288-.713A.967.967 0 0 1 1 8h3V7a.97.97 0 0 1 .287-.713A.97.97 0 0 1 5 6a.97.97 0 0 1 .713.287A.97.97 0 0 1 6 7v4c0 .283-.096.52-.287.712A.968.968 0 0 1 5 12Zm4-2a.965.965 0 0 1-.712-.288A.965.965 0 0 1 8 9c0-.283.096-.521.288-.713A.967.967 0 0 1 9 8h8c.283 0 .52.096.712.287.192.192.288.43.288.713s-.096.52-.288.712A.965.965 0 0 1 17 10H9Zm4-4a.965.965 0 0 1-.712-.288A.965.965 0 0 1 12 5V1c0-.283.096-.521.288-.713A.967.967 0 0 1 13 0c.283 0 .52.096.712.287.192.192.288.43.288.713v1h3c.283 0 .52.096.712.287.192.192.288.43.288.713a.968.968 0 0 1-.288.713A.967.967 0 0 1 17 4h-3v1c0 .283-.096.52-.288.712A.965.965 0 0 1 13 6Z"/>
</svg>