<svg xmlns="http://www.w3.org/2000/svg" fill="none" viewBox="0 0 36 36">
  <rect width="35" height="35" x=".5" y=".5" stroke="#fff" rx="17.5"/>
  <path fill="#fff" d="M20.917 12.167a2.926 2.926 0 0 1 2.916 2.916v5.834a2.926 2.926 0 0 1-2.916 2.916h-5.834a2.926 2.926 0 0 1-2.916-2.916v-5.834a2.926 2.926 0 0 1 2.916-2.916h5.834Zm0-1.167h-5.834A4.095 4.095 0 0 0 11 15.083v5.834A4.095 4.095 0 0 0 15.083 25h5.834A4.095 4.095 0 0 0 25 20.917v-5.834A4.095 4.095 0 0 0 20.917 11Z"/>
  <path fill="#fff" d="M21.792 15.084a.875.875 0 1 1 0-1.75.875.875 0 0 1 0 1.75ZM18 15.667a2.333 2.333 0 1 1 0 4.667 2.333 2.333 0 0 1 0-4.667Zm0-1.167a3.5 3.5 0 1 0 0 7 3.5 3.5 0 0 0 0-7Z"/>
</svg>