<svg xmlns="http://www.w3.org/2000/svg" fill="none" viewBox="0 0 141 18">
  <path fill="#ffffff" d="M5.232 17H.72V.92h4.512v5.976h3.24L12.384.92h5.4l-5.568 7.896L17.664 17h-5.4L8.52 11.288H5.232V17Zm20.315 0h-4.512V.92h4.512V17Zm12.84.24c-5.591 0-8.88-3.264-8.88-8.28S32.797.68 38.388.68c5.4 0 8.64 2.568 8.64 6.864v.408h-5.04v-.408C41.988 5.72 41.125 5 38.46 5c-3.264 0-4.152.768-4.152 3.96s.888 3.96 4.152 3.96c2.664 0 3.528-.72 3.528-2.544v-.408h5.04v.408c0 4.296-3.24 6.864-8.64 6.864ZM55.49 17h-4.512V.92h4.512v5.976h3.24L62.64.92h5.4l-5.568 7.896L67.92 17h-5.4l-3.744-5.712h-3.288V17Zm20.314 0h-4.512V.92h14.376v4.056h-9.864v2.4h9.504v4.032h-9.504V17Zm27.611 0h-13.8V.92h4.512v12.024h9.288V17Zm8.472 0h-4.512V.92h4.512V17Zm8.713 0h-4.512V.92h8.904c3.816 0 6.216 2.184 6.216 6s-2.4 6.024-6.216 6.024h-4.392V17Zm3.888-12.024h-3.888v3.912h3.888c1.584 0 2.232-.312 2.232-1.968 0-1.632-.648-1.944-2.232-1.944Z"/>
  <path fill="#FF6546" d="M140.781 17h-5.856v-4.608h5.856V17Z"/>
</svg>