<svg xmlns="http://www.w3.org/2000/svg" fill="none" viewBox="0 0 36 36">
  <rect width="35" height="35" x=".5" y=".5" stroke="#fff" rx="17.5"/>
  <path fill="#fff" d="M22.88 13.708c-.1-.052-.199-.11-.294-.172a4.159 4.159 0 0 1-.759-.644 3.577 3.577 0 0 1-.855-1.764h.004c-.065-.381-.038-.628-.034-.628h-2.577v9.962c0 .134 0 .266-.005.396 0 .017-.002.032-.003.05l-.001.021v.006a2.187 2.187 0 0 1-1.101 1.736 2.15 2.15 0 0 1-1.066.282 2.18 2.18 0 0 1-2.173-2.188 2.18 2.18 0 0 1 2.173-2.188c.227 0 .453.036.67.106l.002-2.623a4.785 4.785 0 0 0-3.687 1.08 5.055 5.055 0 0 0-1.103 1.36c-.11.187-.52.94-.57 2.163-.03.694.178 1.413.277 1.71v.007c.063.175.305.772.7 1.275.318.404.694.759 1.116 1.053v-.006l.006.006c1.247.848 2.63.792 2.63.792.24-.01 1.041 0 1.952-.432 1.01-.478 1.585-1.19 1.585-1.19.367-.427.66-.912.864-1.436a5.375 5.375 0 0 0 .31-1.642v-5.285l.448.294s.6.385 1.535.635c.672.178 1.576.216 1.576.216v-2.558c-.317.035-.96-.065-1.62-.394Z"/>
</svg>