<svg xmlns="http://www.w3.org/2000/svg" width="16" height="18" fill="none"><path fill="#18313f" d="M3 18c-.55 0-1.02-.196-1.412-.587A1.927 1.927 0 0 1 1 16V3a.97.97 0 0 1-.713-.287A.97.97 0 0 1 0 2a.97.97 0 0 1 .287-.713A.97.97 0 0 1 1 1h4c0-.283.096-.521.288-.713A.967.967 0 0 1 6 0h4a.97.97 0 0 1 .713.287A.97.97 0 0 1 11 1h4c.283 0 .52.096.712.287.192.192.288.43.288.713a.968.968 0 0 1-.288.713A.967.967 0 0 1 15 3v13c0 .55-.196 1.021-.587 1.413A1.928 1.928 0 0 1 13 18H3ZM3 3v13h10V3H3Zm2 10c0 .283.096.52.288.712A.965.965 0 0 0 6 14a.968.968 0 0 0 .713-.288A.967.967 0 0 0 7 13V6a.97.97 0 0 0-.287-.713A.97.97 0 0 0 6 5a.967.967 0 0 0-.712.287A.968.968 0 0 0 5 6v7Zm4 0c0 .283.096.52.288.712A.965.965 0 0 0 10 14a.968.968 0 0 0 .713-.288A.967.967 0 0 0 11 13V6a.97.97 0 0 0-.287-.713A.97.97 0 0 0 10 5a.967.967 0 0 0-.712.287A.968.968 0 0 0 9 6v7Z"/></svg>