<svg xmlns="http://www.w3.org/2000/svg" fill="none" viewBox="0 0 36 36">
  <rect width="35" height="35" x=".5" y=".5" stroke="#fff" rx="17.5"/>
  <g clip-path="url(#a)">
    <path fill="#fff" d="M25.895 14.65c0-1.407-1.034-2.538-2.313-2.538a113.562 113.562 0 0 0-5.3-.112h-.563c-1.8 0-3.569.031-5.3.113-1.275 0-2.31 1.137-2.31 2.543A46.505 46.505 0 0 0 10 17.993a48.367 48.367 0 0 0 .106 3.341c0 1.406 1.035 2.547 2.31 2.547 1.818.084 3.684.122 5.58.119 1.9.006 3.761-.034 5.582-.12 1.278 0 2.313-1.14 2.313-2.546a47.81 47.81 0 0 0 .106-3.344 45.423 45.423 0 0 0-.102-3.34Zm-9.426 6.41v-6.142L21 17.988l-4.531 3.071Z"/>
  </g>
  <defs>
    <clipPath id="a">
      <path fill="#fff" d="M10 10h16v16H10z"/>
    </clipPath>
  </defs>
</svg>